<svg width="26" height="26" viewBox="0 0 26 26" fill="none" xmlns="http://www.w3.org/2000/svg">
<path d="M13 25C19.6274 25 25 19.6274 25 13C25 6.37258 19.6274 1 13 1C6.37258 1 1 6.37258 1 13C1 19.6274 6.37258 25 13 25Z" stroke="#2AF5D6"/>
<path d="M13.0016 25C16.26 25 18.9016 19.6274 18.9016 13C18.9016 6.37258 16.26 1 13.0016 1C9.74308 1 7.10156 6.37258 7.10156 13C7.10156 19.6274 9.74308 25 13.0016 25Z" stroke="#2AF5D6"/>
<path d="M21.6984 5.2001C19.4984 6.4001 16.3984 7.1001 12.8984 7.1001C9.29844 7.1001 6.09844 6.3001 3.89844 5.1001" stroke="#2AF5D6"/>
<path d="M21.6984 20.7999C19.4984 19.5999 16.3984 18.8999 12.8984 18.8999C9.29844 18.8999 6.09844 19.6999 3.89844 20.8999" stroke="#2AF5D6"/>
<path d="M1 13H25" stroke="#2AF5D6"/>
<path d="M13 25V1" stroke="#2AF5D6"/>
</svg>
