<svg width="15" height="16" viewBox="0 0 15 16" fill="none" xmlns="http://www.w3.org/2000/svg">
<path fill-rule="evenodd" clip-rule="evenodd" d="M2.1645 4.65012V6.78517H2.03999C1.25633 6.78517 0.619141 7.3356 0.619141 8.01255V14.7726C0.619141 15.4496 1.25633 16 2.03999 16H12.96C13.7437 16 14.3809 15.4496 14.3809 14.7726V8.00939C14.3809 7.33243 13.7437 6.78201 12.96 6.78201H12.9234V4.64696C12.9234 2.08465 10.5101 0 7.54394 0C4.57774 0.00316335 2.1645 2.08781 2.1645 4.65012ZM8.62099 11.7088C8.46711 11.8071 8.42607 11.901 8.42607 12.0574C8.4312 12.759 8.4312 13.4561 8.4312 14.1577C8.44659 14.4482 8.27732 14.7342 7.97981 14.8638C7.27708 15.1766 6.57434 14.7387 6.57434 14.1577V14.1533C6.57434 13.4517 6.57434 12.7501 6.57947 12.0484C6.57947 11.9054 6.54356 11.8116 6.39994 11.7178C5.67156 11.2485 5.43047 10.4486 5.79466 9.74701C6.1486 9.06328 7.01547 8.66109 7.83106 8.80409C8.73897 8.96496 9.36989 9.59954 9.38015 10.3905C9.38015 10.9402 9.12881 11.3871 8.62099 11.7088ZM7.50097 1.55068C5.60582 1.55068 4.06055 2.9236 4.06055 3.97963V5.67906H10.9414V3.97963C10.9414 2.92592 9.40029 1.55068 7.50097 1.55068Z" fill="#070C11"/>
</svg>
