<svg width="41" height="34" viewBox="0 0 41 34" fill="none" xmlns="http://www.w3.org/2000/svg">
<path d="M20.0628 0L0 34H40.1257L20.0628 0Z" fill="#FFB914"/>
<path d="M20.0022 29.3201C13.6106 29.3201 8.42969 22.4101 8.42969 22.4101C8.42969 22.4101 13.6106 15.5117 20.0022 15.5117C26.3939 15.5117 31.5747 22.4218 31.5747 22.4218C31.5747 22.4218 26.3939 29.3201 20.0022 29.3201Z" fill="#070C11"/>
<path d="M20.0023 27.3504C22.7068 27.3504 24.8992 25.1386 24.8992 22.4101C24.8992 19.6816 22.7068 17.4697 20.0023 17.4697C17.2979 17.4697 15.1055 19.6816 15.1055 22.4101C15.1055 25.1386 17.2979 27.3504 20.0023 27.3504Z" fill="#FFB914"/>
<path d="M20.0012 25.3223C21.5961 25.3223 22.8891 24.0185 22.8891 22.4102C22.8891 20.8018 21.5961 19.498 20.0012 19.498C18.4062 19.498 17.1133 20.8018 17.1133 22.4102C17.1133 24.0185 18.4062 25.3223 20.0012 25.3223Z" fill="#1169FF"/>
</svg>
