<svg width="19" height="16" viewBox="0 0 19 16" fill="none" xmlns="http://www.w3.org/2000/svg">
<path fill-rule="evenodd" clip-rule="evenodd" d="M0.888306 15.84L9.63345 0.892578L18.3786 15.84H0.888306ZM9.54745 7.28019C8.91948 7.28019 8.4171 7.78257 8.4171 8.41054V9.33157H10.6778V8.41054C10.6778 7.78257 10.1754 7.28019 9.54745 7.28019ZM11.5988 13.4553H7.4856C7.31814 13.4553 7.18208 13.3087 7.18208 13.1308V9.63509C7.18208 9.46764 7.31814 9.33157 7.4856 9.33157H7.79959V8.41054C7.79959 7.44765 8.58456 6.66268 9.54745 6.66268C10.5103 6.66268 11.2953 7.44765 11.2953 8.42101V9.34204H11.5988C11.7663 9.34204 11.9024 9.4781 11.9024 9.64556V13.1518C11.9024 13.3192 11.7663 13.4553 11.5988 13.4553Z" fill="#538FFF"/>
</svg>
