<svg width="14" height="13" viewBox="0 0 14 13" fill="none" xmlns="http://www.w3.org/2000/svg">
<path d="M6.82577 1.32741C6.90227 1.19168 7.09773 1.19168 7.17423 1.32741L8.62894 3.90833C8.80018 4.21214 9.09512 4.42643 9.43698 4.4954L12.3411 5.08137C12.4938 5.11219 12.5542 5.29808 12.4488 5.41278L10.4437 7.59384C10.2077 7.85058 10.095 8.1973 10.1351 8.54374L10.4752 11.4868C10.4931 11.6416 10.335 11.7565 10.1933 11.6916L7.4994 10.4587C7.18228 10.3135 6.81772 10.3135 6.50061 10.4587L3.80669 11.6916C3.66502 11.7565 3.50689 11.6416 3.52478 11.4868L3.86492 8.54375C3.90496 8.1973 3.7923 7.85058 3.55627 7.59384L1.55121 5.41278C1.44576 5.29808 1.50616 5.11219 1.65889 5.08137L4.56302 4.4954C4.90488 4.42643 5.19982 4.21214 5.37106 3.90833L6.82577 1.32741Z" fill="#1169FF" stroke="#1169FF" stroke-linecap="round" stroke-linejoin="round"/>
</svg>
