<svg width="14" height="16" viewBox="0 0 14 16" fill="none" xmlns="http://www.w3.org/2000/svg">
<path d="M13.7393 3.55158L13.7194 3.05047L13.253 2.99923C11.4618 2.8024 9.92192 2.08722 8.94549 1.52191C7.87605 0.902748 7.22779 0.321868 7.22185 0.316507L6.87175 0L6.52143 0.31605C6.51499 0.32185 5.86673 0.902748 4.79731 1.52189C3.82088 2.0872 2.281 2.80239 0.48977 2.99921L0.0234317 3.05045L0.00352108 3.55157C-4.37676e-05 3.64128 -0.0749549 5.77852 0.694461 8.36652C1.14848 9.89372 1.80415 11.2621 2.64325 12.4337C3.69692 13.9049 5.04087 15.0646 6.63777 15.8806L6.87139 16L7.10501 15.8806C8.70192 15.0646 10.0459 13.905 11.0995 12.4337C11.9387 11.2621 12.5943 9.89371 13.0483 8.36654C13.8177 5.77856 13.7428 3.64131 13.7393 3.55158Z" fill="#1169FF"/>
<path d="M3.8544 8.19298L5.80876 10.1208L9.63792 6.26514" stroke="white" stroke-width="0.813745" stroke-linecap="round" stroke-linejoin="round"/>
</svg>
